<svg xmlns="http://www.w3.org/2000/svg" width="18" height="17" viewBox="0 0 18 17">
  <g fill="none" fill-rule="evenodd">
    <rect width="16" height="16"/>
    <g fill-rule="nonzero" transform="translate(1 1)">
      <path fill="#40B6E0" fill-opacity=".6"
            d="M7,1.11022302e-15 C10.8659932,1.11022302e-15 14,3.13400675 14,7 C14,7.33952419 13.9758276,7.67340262 13.92911,8.00000823 L8,8 L8.00101007,13.9289666 C7.6740854,13.9757782 7.33987135,14 7,14 C3.13400675,14 -4.4408921e-16,10.8659932 -4.4408921e-16,7 C-4.4408921e-16,3.13400675 3.13400675,1.11022302e-15 7,1.11022302e-15 Z"/>
      <g fill-opacity=".7" transform="translate(9 9)">
        <polygon fill="#9AA7B0" points="0 7 8 7 8 0 0 0"/>
        <path fill="#231F20"
              d="M2.1,1 L1,1.443 L1.157,2.225 L2,2 L2,6 L3,6 L3,1 L2.1,1 Z M5,2 C4.292,2 4,2.54 4,3.5 C4,4.46 4.285,5 5,5 C5.715,5 6,4.446 6,3.5 C6,2.554 5.708,2 5,2 Z M5,1 C6.207,1 7,2.118 7,3.5 C7,4.882 6.206,6 5,6 C3.794,6 3,4.881 3,3.5 C3,1.959 3.793,1 5,1 Z"/>
      </g>
      <path fill="#231F20" fill-opacity=".7"
            d="M9,8.283 C8.53,8.742 8.028,8.978 7.1,9 C6.061,9.022 5,8.28 5,7 C5,5.712 5.971,5 7.1,5 C7.948,5 8.548,5.185 8.9,5.554 L9.516,4.837 C8.83,4.27 8.288,4 7.098,4 C5.34,4 4,5.358 4,7 C4,8.682 5.364,10 7.002,10 C8.292,10 9.023,9.593 9.616,8.981 L9,8.283 Z"/>
    </g>
  </g>
</svg>
