<svg xmlns="http://www.w3.org/2000/svg" width="16" height="16" viewBox="0 0 16 16">
  <g fill="none" fill-rule="evenodd">
    <path fill="#F05133" fill-rule="nonzero" d="M14.7359245,7.37638282 L8.62345125,1.26408123 C8.27150296,0.911972923 7.70061542,0.911972923 7.34836242,1.26408123 L6.07921557,2.53356043 L7.68918853,4.14356842 C8.06338116,4.01710806 8.49242288,4.10197363 8.79058859,4.40029819 C9.09058261,4.7004511 9.17468454,5.13315884 9.0450274,5.50873088 L10.5969517,7.06053664 C10.9725156,6.93102904 11.4055186,7.01482808 11.7053603,7.31513334 C12.1243464,7.73412852 12.1243464,8.41305306 11.7053603,8.83235296 C11.2860695,9.25150049 10.6071598,9.25150049 10.1877166,8.83235296 C9.87263912,8.51696386 9.79463154,8.05378374 9.95445567,7.66556567 L8.5070493,6.21828016 L8.5070493,10.0268701 C8.60912954,10.0774543 8.70557251,10.1447982 8.79058859,10.2298161 C9.20957465,10.6488113 9.20957465,11.3277358 8.79058859,11.7471881 C8.37160254,12.1660309 7.6922357,12.1660309 7.27355436,11.7471881 C6.85456831,11.3275835 6.85456831,10.6486589 7.27355436,10.2298161 C7.37715819,10.1263624 7.49706438,10.0480484 7.62504557,9.99563592 L7.62504557,6.15154566 C7.49706438,6.09913317 7.3774629,6.02158097 7.27355436,5.91736545 C6.95619147,5.60014801 6.87985983,5.13422538 7.04257878,4.74448368 L5.45545961,3.15702524 L1.26407548,7.34804351 C0.911974839,7.70045654 0.911974839,8.27135651 1.26407548,8.62346482 L7.37685347,14.7359188 C7.72880175,15.0880271 8.29953694,15.0880271 8.6519423,14.7359188 L14.7359245,8.65180413 C15.0880252,8.29969582 15.0880252,7.72849113 14.7359245,7.37638282 Z"/>
    <rect width="16" height="16"/>
  </g>
</svg>
