<svg xmlns="http://www.w3.org/2000/svg" width="17" height="16" viewBox="0 0 17 16">
  <path fill="#DB5860" d="M16.6910892,11.3215625 C16.0010934,10.6728125 14.7100298,9.696875 14.7100298,6.5 C14.7100298,4.071875 12.7643274,2.128125 10.1407719,1.65125 L10.1407719,1 C10.1407719,0.4478125 9.62934648,0 8.99863603,0 C8.36792559,0 7.85650013,0.4478125 7.85650013,1 L7.85650013,1.65125 C5.23294468,2.128125 3.28724224,4.071875 3.28724224,6.5 C3.28724224,9.696875 1.99617867,10.6728125 1.30618288,11.3215625 C1.09189847,11.523125 0.996899044,11.7640625 0.998660055,12 C1.0026133,12.5125 1.46225335,13 2.14510634,13 L15.8521657,13 C16.5350187,13 16.9950159,12.5125 16.998612,12 C17.000373,11.7640625 16.9053736,11.5228125 16.6910892,11.3215625 L16.6910892,11.3215625 Z M3.41045578,11.5 C4.1683083,10.6259375 4.99687469,9.1771875 5.00080324,6.518125 C5.00080324,6.511875 4.99866039,6.50625 4.99866039,6.5 C4.99866039,4.566875 6.78936377,3 8.99863603,3 C11.2079083,3 12.9986117,4.566875 12.9986117,6.5 C12.9986117,6.50625 12.9964688,6.511875 12.9964688,6.518125 C13.0003974,9.1775 13.8289638,10.62625 14.5868163,11.5 L3.41045578,11.5 Z M8.99863603,16 C10.2600569,16 11.283265,15.1046875 11.283265,14 L6.71400709,14 C6.71400709,15.1046875 7.73721514,16 8.99863603,16 Z"/>
</svg>
