<svg xmlns="http://www.w3.org/2000/svg" width="19" height="17" viewBox="0 0 19 17">
    <g fill="none" fill-rule="evenodd">
        <rect width="16" height="16"/>
        <g fill-rule="nonzero" transform="translate(2 1)">
            <path fill="#F98B9E" fill-opacity=".6"
                  d="M7,1.11022302e-15 C10.8659932,1.11022302e-15 14,3.13400675 14,7 C14,7.33952419 13.9758276,7.67340262 13.92911,8.00000823 L8,8 L8.00101007,13.9289666 C7.6740854,13.9757782 7.33987135,14 7,14 C3.13400675,14 -4.4408921e-16,10.8659932 -4.4408921e-16,7 C-4.4408921e-16,3.13400675 3.13400675,1.11022302e-15 7,1.11022302e-15 Z"/>
            <path fill="#231F20" fill-opacity=".7"
                  d="M10.992,7 C10.992,6.251 10.635,5 8.982,5 C8.112,5 7.658,5.502 7.599,5.6 C7.284,5.194 6.944,5 6.1,5 C5.632,5 5.265,5.1 5,5.3 L5,5 L4,5 L4,10 L5,10 C4.967,8.156 4.967,7.156 5,7 C5.05,6.766 5.05,6 6,6 C6.95,6 6.999,6.537 7,7 L7,10 L8,10 L8,7 C8,6.686 7.96,6 8.982,6 C10.004,6 10.004,6.74 10.005,7 L10.005,10 L10.997,10 L10.992,7 L10.992,7 Z"/>
        </g>
        <g fill-opacity=".7" fill-rule="nonzero" transform="translate(11 10)">
            <polygon fill="#F0A732" points="0 7 7 7 7 0 0 0"/>
            <polygon fill="#231F20" points="2.1 1 1 1.443 1.157 2.225 2 2 2 6 3 6 3 1"/>
            <polygon fill="#231F20" points="5.1 1 4 1.443 4.157 2.225 5 2 5 6 6 6 6 1"/>
        </g>
    </g>
</svg>
