<svg xmlns="http://www.w3.org/2000/svg" width="17" height="17" viewBox="0 0 17 17">
  <path fill="#F0A732" d="M14.45,2.125 L13.6,2.125 C12.1916739,2.125 11.05,3.55209236 11.05,5.3125 L11.05,13.8125 C11.05,14.3993025 11.430558,14.875 11.9,14.875 C12.369442,14.875 12.75,14.3993025 12.75,13.8125 L12.75,9.5625 L15.3,9.5625 L15.3,13.8125 C15.3,14.3993025 15.680558,14.875 16.15,14.875 C16.619442,14.875 17,14.3993025 17,13.8125 L17,5.3125 C17,3.55209236 15.8583261,2.125 14.45,2.125 Z M15.3,7.4375 L12.75,7.4375 L12.75,5.3125 C12.75,4.72569745 13.130558,4.25 13.6,4.25 L14.45,4.25 C14.919442,4.25 15.3,4.72569745 15.3,5.3125 L15.3,7.4375 Z M5.1,2.125 C4.63055796,2.125 4.25,2.60069745 4.25,3.1875 L4.25,9.3075 L1.6065,2.709375 C1.42790425,2.27357712 1.03417596,2.04677684 0.653107625,2.16019003 C0.272039289,2.27360323 0.00232143346,2.69785772 0,3.1875 L0,13.8125 C0,14.3993025 0.380557963,14.875 0.85,14.875 C1.31944204,14.875 1.7,14.3993025 1.7,13.8125 L1.7,7.6925 L4.3435,14.290625 C4.48753271,14.6479221 4.77992552,14.8737874 5.1,14.875 C5.16490439,14.8853356 5.23059561,14.8853356 5.2955,14.875 C5.68749246,14.7593874 5.96076367,14.3157653 5.95,13.8125 L5.95,3.1875 C5.95,2.60069745 5.56944204,2.125 5.1,2.125 Z M8.5,0 C8.03055796,0 7.65,0.475697453 7.65,1.0625 L7.65,15.9375 C7.65,16.5243025 8.03055796,17 8.5,17 C8.96944204,17 9.35,16.5243025 9.35,15.9375 L9.35,1.0625 C9.35,0.475697453 8.96944204,0 8.5,0 Z"/>
</svg>
