<svg xmlns="http://www.w3.org/2000/svg" width="18" height="17" viewBox="0 0 18 17">
    <g fill="none" fill-rule="evenodd">
        <rect width="16" height="16"/>
        <path fill="#9AA7B0" fill-opacity=".8"
              d="M6,10.4950006 C4.89681121,10.4958284 4.00182843,9.60218879 4.00099942,8.499 C4.00017157,7.39581121 4.89381121,6.50082843 5.997,6.49999943 C6.71063803,6.49946409 7.37035266,6.87969024 7.72763578,7.49745095 C8.0849189,8.11521166 8.08549069,8.87665437 7.72913578,9.49495097 C7.37278086,10.1132476 6.71363803,10.4944641 6,10.4950006 Z M9,9 L9,13 L1,13 L1,2.05 C1.00107464,2.02261747 1.02359639,2.00099998 1.051,2.00099998 L1.051,2.00099998 L4.979,2.00099998 C5.532,2.00099998 6.305,2.321 6.696,2.711 L6.696,2.711 L7.984,4 L15,4 L15,9 L9,9 Z"/>
        <g fill-opacity=".7" fill-rule="nonzero" transform="translate(10 10)">
            <polygon fill="#F0A732" points="0 7 7 7 7 0 0 0"/>
            <polygon fill="#231F20" points="2.1 1 1 1.443 1.157 2.225 2 2 2 6 3 6 3 1"/>
            <polygon fill="#231F20" points="5.1 1 4 1.443 4.157 2.225 5 2 5 6 6 6 6 1"/>
        </g>
    </g>
</svg>
