<svg xmlns="http://www.w3.org/2000/svg" width="18" height="17" viewBox="0 0 18 17">
    <g fill="none" fill-rule="evenodd">
        <rect width="16" height="16"/>
        <g transform="translate(1 1)">
            <path fill="#9AA7B0" fill-opacity=".8" d="M0,0 L14,0 L14,13 L0,13 L0,0 Z M1,3 L1,12 L13,12 L13,3 L1,3 Z"/>
            <path fill="#40B6E0" fill-opacity=".6" d="M8,8 L8,11 L2,11 L2,4 L12,4 L12,8 L8,8 Z"/>
        </g>
        <g fill-opacity=".7" transform="translate(10 10)">
            <polygon fill="#F0A732" points="0 7 7 7 7 0 0 0"/>
            <polygon fill="#231F20" points="2.1 1 1 1.443 1.157 2.225 2 2 2 6 3 6 3 1"/>
            <polygon fill="#231F20" points="5.1 1 4 1.443 4.157 2.225 5 2 5 6 6 6 6 1"/>
        </g>
    </g>
</svg>
