<svg xmlns="http://www.w3.org/2000/svg" width="16" height="16" viewBox="0 0 16 16">
  <g fill="none" fill-rule="evenodd">
    <g fill-rule="nonzero" transform="translate(1 1)">
      <polygon fill="#59A869" points="0 0 5.237 4.2 9 7 0 14"/>
      <path fill="#DB5860" d="M9.00000304,1 C9.39419346,1 9.71383147,1.36169471 9.71383147,1.80769231 L9.71383147,1.80769231 L9.71383147,2.33370192 C11.3535386,2.71887019 12.5695916,4.28882212 12.5695916,6.25 C12.5695916,8.83209134 13.3764989,9.62034856 13.8077424,10.1443389 C13.9416688,10.306887 14.0010429,10.5017428 13.9999861,10.6923077 C13.9976947,11.10625 13.7101991,11.5 13.2834199,11.5 L13.2834199,11.5 L10.249,11.5 L10.2442713,11.6444738 C10.1874688,12.3576455 9.7144827,12.9250007 9.12035614,12.9931343 L9.00000304,13 C8.30984006,13 7.75001082,12.3285156 7.75001082,11.5 L7.75,11.5 L5,11.5 L6.75,10 L12.7499797,10 C12.2681852,9.4156966 11.7438016,8.46711096 11.6876963,6.7727471 L11.682769,6.48338236 C11.682769,6.47897059 11.684207,6.475 11.684207,6.47058823 C11.684207,5.10602941 10.4825463,4 9.00000304,4 C8.34826831,4 7.7508151,4.21374384 7.28586836,4.56923191 L6.59123996,4 L6.24712865,3.69583785 C6.7558609,3.0126859 7.46831874,2.5258168 8.28617463,2.33370192 L8.28617463,2.33370192 L8.28617463,1.80769231 C8.28617463,1.36169471 8.60581262,1 9.00000304,1 Z M10.2499953,11.5 L7.75001082,11.5 L7.75,11.5 L10.249,11.5 L10.2499953,11.5 Z"/>
    </g>
    <rect width="16" height="16"/>
  </g>
</svg>
