<svg xmlns="http://www.w3.org/2000/svg" width="40" height="40" viewBox="0 0 40 40">
  <g fill="none" fill-rule="evenodd">
    <rect width="40" height="40"/>
    <g fill="#AFB1B3" transform="translate(7.5 20)">
      <polygon points="2.5 2.5 15 2.5 15 5 2.5 5"/>
      <polygon points="2.5 12.5 15 12.5 15 15 2.5 15"/>
      <polygon points="0 0 2.5 0 2.5 15 0 15"/>
    </g>
    <g transform="translate(24.086 19.13)">
      <polygon fill="#F0A732" points=".914 8.87 13.914 8.87 13.914 .87 .914 .87"/>
      <polygon fill="#231F20" points="4.875 2.875 3.5 3.208 3.697 3.792 4.75 3.625 4.75 6.625 6 6.625 6 2.875"/>
      <polygon fill="#231F20" points="9.875 2.875 8.5 3.208 8.697 3.792 9.75 3.625 9.75 6.625 11 6.625 11 2.875"/>
    </g>
    <g transform="translate(24.065 29.109)">
      <polygon fill="#499C54" points=".935 .891 13.935 .891 13.935 8.891 .935 8.891"/>
      <path fill="#231F20" d="M7.43046625,6.625 C6.11515272,6.625 5.25,5.8118094 5.25,4.76035912 L5.25,4.75 C5.25,3.69854972 6.13625402,2.875 7.44453375,2.875 C8.74577975,2.875 9.625,3.6881906 9.625,4.73964087 L9.625,4.75 C9.625,5.80145027 8.74577975,6.625 7.43046625,6.625 Z M7.44980907,5.90504142 C8.10394895,5.90504142 8.51894092,5.41816297 8.51894092,4.76035912 L8.51894092,4.75 C8.51894092,4.09219612 8.08284768,3.59495857 7.43574155,3.59495857 C6.78863545,3.59495857 6.36660972,4.07665745 6.36660972,4.73964087 L6.36660972,4.75 C6.36660972,5.41298342 6.7956692,5.90504142 7.44980907,5.90504142 L7.44980907,5.90504142 Z"/>
    </g>
    <g transform="translate(3.438 3.438)">
      <polygon fill="#40B6E0" fill-opacity=".7" points="0 15 15 15 15 8 0 8"/>
      <polygon fill="#9AA7B0" fill-opacity=".8" points="6 0 2 4 6 4"/>
      <polygon fill="#9AA7B0" fill-opacity=".8" points="7 0 7 5 2 5 2 7 12 7 12 0"/>
      <path fill="#231F20" fill-opacity=".7" d="M2.395,12.588 C2.625,12.838 2.838,13 3.287,13 C3.813,13 4,12.588 4,12.298 L4,9 L5,9 L5,12.588 C5,13.32 4.327,14 3.45,14 C2.629,14 2.15,13.763 1.8,13.32 L2.395,12.588 L2.395,12.588 Z"/>
    </g>
  </g>
</svg>
