<svg xmlns="http://www.w3.org/2000/svg" width="16" height="16" viewBox="0 0 16 16">
    <rect id="frame" width="16" height="16" fill="none"/>
    <g fill="none" fill-rule="evenodd">
        <path fill="#F98B9E" fill-opacity=".6"
              d="M14.728 9.94l-1.503-.084L11.95 6.5h-.91L9.772 9.856l-3.752.216v.805l2.685 2.263-.491 1.857a7 7 0 1 1 6.515-5.058z"/>
        <path fill="#9AA7B0"
              d="M11.498 14.163l-2.78 1.793.846-3.198L7 10.668l3.303-.184L11.498 7.4l1.195 3.084 3.303.184-2.564 2.09.846 3.198z"/>
        <path fill="#231F20" fill-opacity=".7"
              d="M10.757 7.25c-.15-.145-.39-.25-.775-.25C8.959 7 9 7.686 9 8v1.9l-1 .058V8c-.001-.463-.05-1-1-1s-.95.766-1 1c-.033.156-.033 1.156 0 3H5V6h1v.3c.265-.2.632-.3 1.1-.3.844 0 1.184.194 1.499.6.059-.098.513-.6 1.383-.6.67 0 1.127.206 1.434.5h-.375l-.284.75z"/>
    </g>
</svg>