<svg xmlns="http://www.w3.org/2000/svg" width="16" height="16" viewBox="0 0 16 16">
  <g fill="none" fill-rule="evenodd" transform="matrix(1 0 0 -1 0 16)">
    <rect width="16" height="16"/>
    <path fill="#B99BF8" fill-rule="nonzero" d="M7.37806346,14.972577 C4.99487807,14.7580494 2.85438221,13.3123444 1.77292113,11.1892063 C0.886297317,9.44427668 0.759167432,7.4846766 1.40867258,5.64105285 C1.54137333,5.27112834 1.85205591,4.62740257 2.0637486,4.29147113 C3.00408122,2.79506223 4.49221508,1.6938584 6.19204163,1.23638033 C7.80444853,0.804325648 9.51555964,0.968149357 11.0375472,1.70228525 C11.797184,2.06649663 12.3337006,2.44770455 12.9407816,3.05758009 C13.5507193,3.66459906 13.9318233,4.20106101 14.2962147,4.96062028 C15.117988,6.66312997 15.2224059,8.55774332 14.589899,10.3562334 C14.3470666,11.050806 13.8669728,11.8864926 13.3671666,12.4879412 C11.9243138,14.2271577 9.63697582,15.1758213 7.37806346,14.972577 Z M8.95933068,14.1396042 C10.2723396,13.9335034 11.4499337,13.3349112 12.3929803,12.391818 C13.3445975,11.4374413 13.934823,10.2713936 14.1465157,8.91609876 C14.214223,8.48690063 14.214223,7.50995715 14.1465157,7.08090186 C13.9346801,5.72560702 13.3445975,4.55955927 12.3929803,3.60518262 C11.4385063,2.65366252 10.2723396,2.06349725 8.91690644,1.85182616 C8.48766452,1.78412569 7.51062137,1.78412569 7.08152229,1.85182616 C5.72608917,2.06364007 4.55992246,2.65366252 3.60544842,3.60518262 C2.65668809,4.55684554 2.0637486,5.72574985 1.85191307,7.06976127 C1.78134884,7.51295654 1.78134884,8.47576005 1.85191307,8.92752499 C2.12588511,10.683738 3.08307316,12.18586 4.57406387,13.1880841 C5.34498521,13.710406 6.36145291,14.0719037 7.34978063,14.1791675 C7.69431691,14.2187309 8.60922355,14.1933075 8.95933068,14.1396042 Z"/>
    <path fill="#B99BF8" fill-rule="nonzero" d="M4.73219059,11.17778 C4.68133864,11.1552132 4.61363126,11.093083 4.58249158,11.0422363 C4.52606877,10.9491124 4.52606877,10.9066925 4.52606877,7.9392981 C4.52606877,5.40667211 4.53178247,4.92391349 4.56563616,4.87863701 C4.62205897,4.80236686 5.13886338,4.77980004 5.2969901,4.84478678 L5.40140802,4.88992042 L5.40712172,7.6852071 L5.41554943,10.4804938 L6.4885828,7.68249337 L7.56161616,4.88449296 L7.66046322,4.84207305 C7.7875931,4.78836972 8.23654729,4.80536625 8.29297011,4.86749643 C8.31553923,4.89006325 8.82105908,6.12109774 9.41971227,7.60336666 C10.0183655,9.08563558 10.5294562,10.34495 10.5520253,10.3986533 C10.5915927,10.4890635 10.5943067,10.2349725 10.5971636,7.71348704 C10.5971636,5.3586819 10.6027344,4.92391349 10.6367309,4.87592328 C10.6705846,4.83078963 10.7185797,4.82236278 10.9699827,4.8137931 C11.1902459,4.80536625 11.2919498,4.8137931 11.3680849,4.84764334 L11.4725028,4.88992042 L11.4725028,7.91958784 C11.4725028,10.8756988 11.469646,10.951969 11.41608,11.0395225 C11.3256606,11.19192 11.2380982,11.2173434 10.8287114,11.2173434 C10.6281604,11.2173434 10.4248954,11.2089165 10.3769003,11.2003469 C10.261055,11.17778 10.0803591,11.0196695 10.0155086,10.8869822 C9.98722579,10.8277086 9.52984389,9.72650479 8.99889807,8.43619669 C8.4708091,7.14874515 8.02471176,6.09553152 8.01057035,6.09838808 C7.99928579,6.10124464 7.56718702,7.16002857 7.05338231,8.45590696 C6.53943475,9.74907162 6.08762371,10.8642726 6.05091317,10.9321159 C6.00006122,11.0252397 5.94078155,11.0789431 5.83907765,11.1297898 C5.70923375,11.1974903 5.66966636,11.2032034 5.26027956,11.2089165 C4.92702785,11.2144868 4.79989797,11.20606 4.73219059,11.17778 Z"/>
  </g>
</svg>
