<svg xmlns="http://www.w3.org/2000/svg" width="15" height="15" viewBox="0 0 15 15">
  <path fill="#9AA7B0" d="M0.984795322,14.7663218 C0.942690058,14.7593065 0.879532164,14.7207222 0.844444444,14.6786303 C0.78128655,14.6119848 0.777777778,14.3804793 0.777777778,7.77204979 L0.777777778,0.939130091 L0.858479532,0.858453934 L0.939181287,0.777777778 L7.77777778,0.777777778 L14.6163743,0.777777778 L14.697076,0.858453934 L14.7777778,0.939130091 L14.7777778,7.77555745 L14.7777778,14.6119848 L14.697076,14.692661 L14.6163743,14.7733371 L7.8374269,14.7768448 C4.11111111,14.7803524 1.02339181,14.7733371 0.984795322,14.7663218 Z M4.69005848,10.4949447 L4.69005848,7.49494473 L3.19005848,7.49494473 L1.69005848,7.49494473 L1.69005848,10.4949447 L1.69005848,13.4949447 L3.19005848,13.4949447 L4.69005848,13.4949447 L4.69005848,10.4949447 Z M8.33918129,11.7398465 L8.33918129,9.73984649 L6.79532164,9.73984649 L5.25146199,9.73984649 L5.25146199,11.7398465 L5.25146199,13.7398465 L6.79532164,13.7398465 L8.33918129,13.7398465 L8.33918129,11.7398465 Z M11.7076023,11.7398465 L11.7076023,9.73984649 L10.3040936,9.73984649 L8.9005848,9.73984649 L8.9005848,11.7398465 L8.9005848,13.7398465 L10.3040936,13.7398465 L11.7076023,13.7398465 L11.7076023,11.7398465 Z M13.2690058,11.7398465 L13.2690058,9.73984649 L12.7690058,9.73984649 L12.2690058,9.73984649 L12.2690058,11.7398465 L12.2690058,13.7398465 L12.7690058,13.7398465 L13.2690058,13.7398465 L13.2690058,11.7398465 Z M9.74269006,7.77555745 L9.74269006,6.37249386 L7.49707602,6.37249386 L5.25146199,6.37249386 L5.25146199,7.77555745 L5.25146199,9.17862105 L7.49707602,9.17862105 L9.74269006,9.17862105 L9.74269006,7.77555745 Z M13.3040936,6.9337193 L13.3040936,4.68881755 L11.8040936,4.68881755 L10.3040936,4.68881755 L10.3040936,6.9337193 L10.3040936,9.17862105 L11.8040936,9.17862105 L13.3040936,9.17862105 L13.3040936,6.9337193 Z M4.69005848,4.4337193 L4.69005848,1.9337193 L3.19005848,1.9337193 L1.69005848,1.9337193 L1.69005848,4.4337193 L1.69005848,6.9337193 L3.19005848,6.9337193 L4.69005848,6.9337193 L4.69005848,4.4337193 Z M9.74269006,4.68881755 L9.74269006,3.56636667 L7.49707602,3.56636667 L5.25146199,3.56636667 L5.25146199,4.68881755 L5.25146199,5.81126842 L7.49707602,5.81126842 L9.74269006,5.81126842 L9.74269006,4.68881755 Z M11.9883041,3.12759211 L11.9883041,2.12759211 L11.1461988,2.12759211 L10.3040936,2.12759211 L10.3040936,3.12759211 L10.3040936,4.12759211 L11.1461988,4.12759211 L11.9883041,4.12759211 L11.9883041,3.12759211 Z M13.5497076,3.12759211 L13.5497076,2.12759211 L13.0497076,2.12759211 L12.5497076,2.12759211 L12.5497076,3.12759211 L12.5497076,4.12759211 L13.0497076,4.12759211 L13.5497076,4.12759211 L13.5497076,3.12759211 Z M9.74269006,2.50514123 L9.74269006,2.00514123 L7.49707602,2.00514123 L5.25146199,2.00514123 L5.25146199,2.50514123 L5.25146199,3.00514123 L7.49707602,3.00514123 L9.74269006,3.00514123 L9.74269006,2.50514123 Z" transform="matrix(1 0 0 -1 .016 14.984)"/>
</svg>
